PathFileType	4	(X/Y/Z)	Kaydara	
DataRate	CameraRate	NumFrames	NumMarkers	Units	OrigDataRate	OrigDataStartFrame	OrigNumFrames	
60.00	60.00	4	74	mm	60.00	1327	200	
Frame#	Time	Z_lasi			Z_rasi			Z_rpsi			Z_lpsi			Z_fneck			Z_bneck			Z_fhead			Z_rhead			Z_lhead			Z_rshld			Z_relbtop			Z_relbext			Z_relblow			Z_rwrext			Z_rwrtop			Z_rwrlow			Z_lshld			Z_lelbext			Z_lelblow			Z_lelbtop			Z_lwrext			Z_lwrtop			Z_lwrlow			Z_rtopleg			Z_ltopleg			Z_rkneefr			Z_rkneebk			Z_rkneeis			Z_lkneefr			Z_lknssbk			Z_lkneeis			Z_rankfr			Z_rankis			Z_rankbk			Z_lankfr			Z_lankbk			Z_lankis			A_lasi			A_rasi			A_rpsi			A_lpsi			A_fneck			A_bneck			A_fhead			A_rhead			A_lhead			A_rshld			A_relbtop			A_relbext			A_relblow			A_rwrext			A_rwrtop			A_rwrlow			A_lshld			A_lelbext			A_lelblow			A_lelbtop			A_lwrext			A_lwrtop			A_lwrlow			A_rtopleg			A_ltopleg			A_rkneefr			A_rkneebk			A_rkneeis			A_lkneefr			A_lknssbk			A_lkneeis			A_rankfr			A_rankis			A_rankbk			A_lankfr			A_lankbk			A_lankis			
		X1	Y1	Z1	X2	Y2	Z2	X3	Y3	Z3	X4	Y4	Z4	X5	Y5	Z5	X6	Y6	Z6	X7	Y7	Z7	X8	Y8	Z8	X9	Y9	Z9	X10	Y10	Z10	X11	Y11	Z11	X12	Y12	Z12	X13	Y13	Z13	X14	Y14	Z14	X15	Y15	Z15	X16	Y16	Z16	X17	Y17	Z17	X18	Y18	Z18	X19	Y19	Z19	X20	Y20	Z20	X21	Y21	Z21	X22	Y22	Z22	X23	Y23	Z23	X24	Y24	Z24	X25	Y25	Z25	X26	Y26	Z26	X27	Y27	Z27	X28	Y28	Z28	X29	Y29	Z29	X30	Y30	Z30	X31	Y31	Z31	X32	Y32	Z32	X33	Y33	Z33	X34	Y34	Z34	X35	Y35	Z35	X36	Y36	Z36	X37	Y37	Z37	X38	Y38	Z38	X39	Y39	Z39	X40	Y40	Z40	X41	Y41	Z41	X42	Y42	Z42	X43	Y43	Z43	X44	Y44	Z44	X45	Y45	Z45	X46	Y46	Z46	X47	Y47	Z47	X48	Y48	Z48	X49	Y49	Z49	X50	Y50	Z50	X51	Y51	Z51	X52	Y52	Z52	X53	Y53	Z53	X54	Y54	Z54	X55	Y55	Z55	X56	Y56	Z56	X57	Y57	Z57	X58	Y58	Z58	X59	Y59	Z59	X60	Y60	Z60	X61	Y61	Z61	X62	Y62	Z62	X63	Y63	Z63	X64	Y64	Z64	X65	Y65	Z65	X66	Y66	Z66	X67	Y67	Z67	X68	Y68	Z68	X69	Y69	Z69	X70	Y70	Z70	X71	Y71	Z71	X72	Y72	Z72	X73	Y73	Z73	X74	Y74	Z74	

126	22.100	-227.45874	1080.20638	688.54317	-287.99887	1088.25478	491.89178	-119.99412	1112.62711	406.07143	-41.97670	1099.09370	637.01988	-221.25170	1447.52350	574.55254	-114.67435	1514.30862	560.96790	-324.63867	1637.07718	566.19652	-188.49674	1647.01324	468.05416	-162.46691	1658.65768	613.74153	-176.17182	1437.79526	359.82639	-144.84434	1117.70981	278.41431	-118.31296	1100.47081	331.35090	-210.49545	1128.47885	317.82436	-244.52240	891.21750	285.94999	-276.67925	904.99107	315.94320	-252.45729	899.48547	351.20815	-108.23536	1444.81476	749.16161	-83.71222	1124.03046	753.17307	-146.45041	1146.49834	813.53432	-78.03599	1141.52657	822.31247	-226.88484	895.60791	791.13815	-218.01773	886.85844	836.87126	-172.15458	879.38751	831.02310	-171.44258	924.16649	360.42835	-137.48569	894.69704	724.22020	-242.42304	421.50429	409.39625	-174.29726	451.49040	355.16777	-179.83355	429.04892	478.97701	-189.69616	446.59904	687.70393	-85.12354	471.99436	669.20921	-184.65895	442.63912	594.58454	-203.68731	180.42442	378.10108	-180.00416	174.66999	440.16418	-127.38146	172.41955	370.27954	-124.45664	163.60451	678.38440	-70.28673	166.53214	617.71355	-150.14091	173.39508	610.64198	-960.16876	1028.16185	482.96768	-951.27853	1038.40149	642.65938	-1110.90858	1042.09763	660.29854	-1084.16016	1042.54807	478.98094	-1026.99371	1381.81519	565.48927	-1165.40916	1415.41534	552.89387	-970.83969	1585.16632	595.00111	-1125.34523	1553.17657	664.22615	-1112.10938	1572.23770	501.64997	-1116.31584	1352.82867	738.47275	-1122.66304	1068.20763	804.29504	-1177.22115	1062.82166	768.32359	-1108.36098	1048.21861	750.32555	-1153.14774	830.92484	870.22690	-1107.47330	828.16116	865.21965	-1110.51353	820.02113	825.78926	-1066.07552	1355.68039	385.43602	-1127.52472	1056.64352	345.88905	-1056.30272	1054.93263	343.12363	-1096.51367	1064.91730	307.35476	-1085.39436	828.93982	290.49765	-1107.59338	842.25792	255.23453	-1063.13080	844.33479	243.90680	-1064.78653	876.06850	744.86465	-1026.40800	890.14473	407.10384	-1028.71643	450.28553	648.69141	-1136.11359	486.13529	694.52293	-1116.07086	486.63868	576.33110	-1013.21503	461.77170	514.97990	-1097.14890	480.65670	418.35491	-1120.63416	478.22559	542.58522	-1099.72740	165.60154	667.18864	-1132.95555	163.55034	601.19682	-1180.91202	153.56297	670.40947	-1067.59209	166.74040	458.67359	-1128.34038	168.65225	422.75314	-1127.51801	172.95496	512.29946 
127	22.117	-227.78034	1080.14687	688.53424	-287.93293	1088.19496	491.70959	-119.79288	1112.66006	406.12904	-42.27460	1099.08936	637.30431	-221.55172	1447.49481	574.65942	-114.98514	1514.26422	561.19804	-324.92340	1637.20184	566.70631	-188.76877	1647.05170	468.34076	-162.53729	1658.54218	614.03198	-176.15108	1437.79114	359.91688	-144.57125	1117.68517	278.67224	-118.18136	1100.45998	331.72226	-210.35381	1128.44826	317.94735	-244.12743	891.22269	285.83670	-276.44222	904.93767	315.90046	-252.31625	899.41978	351.25031	-108.88651	1444.79980	749.41963	-83.72581	1124.05724	753.38150	-146.62146	1146.29356	813.67966	-78.12089	1141.59157	822.46078	-225.48985	894.80545	791.33026	-216.91162	886.22612	837.28989	-170.73935	879.18991	831.37230	-171.24840	924.15695	360.49667	-137.77388	894.67468	724.25835	-242.34936	421.47118	409.45038	-174.20591	451.48430	355.18684	-179.88089	429.06990	479.03564	-189.75811	446.56696	687.62527	-85.17660	472.01283	669.23210	-184.64594	442.63737	594.56696	-203.66478	180.43156	378.09475	-180.00629	174.66507	440.19436	-127.35529	172.42334	370.32600	-124.52398	163.62280	678.39455	-70.29184	166.55581	617.72205	-150.13056	173.41507	610.62706	-959.89792	1027.95349	482.95418	-950.91995	1038.25951	642.47635	-1110.36697	1042.17972	660.38956	-1084.05838	1042.71561	479.20704	-1026.40015	1381.93253	565.50560	-1164.68407	1415.42099	552.67677	-970.08163	1585.21072	596.16051	-1124.78539	1552.59125	664.89182	-1111.22169	1572.56836	502.41631	-1116.49620	1352.74841	738.16673	-1125.98839	1067.83958	802.25601	-1180.20607	1062.94701	765.98801	-1111.62842	1048.14636	748.15216	-1154.92699	829.04778	864.97086	-1109.13612	827.81067	861.36772	-1110.13626	820.32455	822.13921	-1065.34286	1355.89462	385.00660	-1131.90903	1056.96640	349.32125	-1060.64896	1054.65294	345.67608	-1101.25732	1064.26041	310.42309	-1087.88170	828.02597	297.98685	-1110.78812	840.10429	262.70885	-1066.53664	842.64595	250.61680	-1064.90417	876.21117	744.98421	-1026.50894	890.14694	407.25281	-1028.97766	450.24632	648.70628	-1136.34865	486.15314	694.67468	-1116.36948	486.63292	576.45546	-1013.50792	461.70914	514.98676	-1097.48497	480.64461	418.37044	-1120.99281	478.17783	542.64801	-1099.80179	165.61594	667.22916	-1133.04306	163.57965	601.25042	-1180.93582	153.53122	670.47409	-1067.66006	166.75602	458.68202	-1128.44337	168.62398	422.75970	-1127.60849	172.94340	512.28844 
128	22.133	-228.06349	1080.11002	688.48488	-287.85191	1088.12904	491.58913	-119.59129	1112.68967	406.23772	-42.54519	1099.14391	637.55569	-221.89133	1447.46307	574.78207	-115.11844	1514.23981	561.28624	-325.10887	1637.30362	567.12471	-189.12848	1647.09610	468.57895	-162.62955	1658.42621	614.26903	-176.10207	1437.78671	360.04375	-144.32885	1117.65541	278.98096	-117.89824	1100.46425	331.96774	-210.03744	1128.40752	318.15228	-243.76387	891.17554	285.91413	-276.24319	904.89235	315.86802	-252.14417	899.38629	351.29730	-109.51713	1444.77386	749.64424	-83.67539	1124.14444	753.66791	-146.66131	1146.11847	813.83148	-78.23332	1141.68434	822.79404	-224.34015	894.17610	791.79672	-215.61430	885.61958	837.65556	-169.79322	879.06067	831.75797	-171.07727	924.13551	360.54749	-138.16605	894.65508	724.32610	-242.27848	421.46503	409.49223	-174.12905	451.47438	355.22594	-179.93351	429.09840	479.13330	-189.81142	446.55212	687.62505	-85.34221	472.02919	669.33571	-184.68102	442.63939	594.56345	-203.64466	180.42830	378.08868	-180.00481	174.63593	440.19398	-127.33688	172.42378	370.35202	-124.52446	163.62244	678.39470	-70.31585	166.55067	617.79613	-150.14520	173.41311	610.63034	-959.70543	1027.81464	482.98866	-950.81406	1038.13934	642.46269	-1110.18120	1042.29088	660.30624	-1083.80112	1042.69547	479.20673	-1025.88676	1381.98166	565.61356	-1164.02695	1415.48355	552.51232	-969.49730	1585.11566	597.12383	-1124.33586	1552.15881	665.38177	-1110.45097	1572.90497	503.09887	-1116.71486	1352.57477	737.86667	-1128.99910	1067.32437	799.85794	-1183.08418	1062.85683	763.55309	-1114.32907	1048.12950	745.82344	-1155.61050	827.06535	859.04915	-1109.82536	827.33147	856.61491	-1109.45412	820.39024	817.31201	-1064.37607	1356.13251	384.58176	-1136.05087	1057.19398	353.20999	-1064.74846	1054.33044	348.82717	-1105.74654	1063.52814	313.90108	-1089.63638	827.06535	306.04887	-1113.31841	837.85431	270.95556	-1069.30748	841.01013	258.15594	-1065.02464	876.28380	745.10323	-1026.56342	890.14503	407.36519	-1029.22417	450.26100	648.74725	-1136.60744	486.15562	694.78050	-1116.59882	486.64757	576.54510	-1013.73642	461.67110	514.92027	-1097.72652	480.61829	418.35079	-1121.38260	478.16608	542.67017	-1099.84398	165.68214	667.28157	-1133.11607	163.60384	601.29044	-1180.99358	153.52667	670.54276	-1067.74216	166.77874	458.69450	-1128.52333	168.60525	422.75761	-1127.70477	172.93522	512.28378 
129	22.150	-228.37206	1080.05043	688.48396	-287.76413	1088.07373	491.46023	-119.42127	1112.70752	406.33671	-42.75393	1099.13406	637.80193	-222.18170	1447.40433	574.92184	-115.40582	1514.21478	561.53923	-325.23388	1637.37579	567.52300	-189.43249	1647.12006	468.88329	-162.69312	1658.34122	614.46568	-176.05076	1437.75528	360.17422	-144.13194	1117.63824	279.18854	-118.02426	1100.41420	332.43507	-209.93071	1128.38097	318.29662	-243.49146	891.10847	286.05331	-276.00763	904.82521	315.85424	-251.96226	899.35242	351.31428	-110.14348	1444.79187	749.89815	-83.46928	1124.25194	753.91991	-146.58121	1145.93620	814.06158	-78.20478	1141.81068	823.09525	-222.66073	893.39737	792.07138	-214.12455	885.14702	838.03558	-168.75214	878.65463	832.30232	-170.92960	924.14917	360.58640	-138.57530	894.63074	724.41353	-242.17749	421.48178	409.50237	-174.02945	451.47121	355.25993	-179.99052	429.11186	479.25179	-189.94776	446.50887	687.61505	-85.47676	472.04880	669.40987	-184.74068	442.62203	594.57058	-203.63203	180.44024	378.08941	-180.00465	174.63766	440.19985	-127.28889	172.39672	370.37289	-124.73714	163.65864	678.49281	-70.32122	166.56784	617.80369	-150.16177	173.40282	610.60101	-959.47510	1027.75040	482.96520	-950.79750	1038.09967	642.50443	-1110.15839	1042.45735	660.20203	-1083.27995	1042.64267	478.82767	-1025.49263	1381.97723	565.78239	-1163.49411	1415.66513	552.43744	-968.76442	1584.93179	598.16444	-1123.78853	1551.77246	666.04889	-1109.54735	1573.32825	503.75576	-1117.02850	1352.31064	737.64900	-1131.74011	1066.64856	797.20329	-1185.69176	1062.63885	760.87799	-1116.88110	1048.16109	742.98302	-1155.16258	824.93492	852.52632	-1109.53491	826.67175	851.17668	-1108.20595	820.33882	811.45683	-1063.62488	1356.36292	384.39674	-1139.86183	1057.43492	357.37415	-1068.48831	1054.01085	352.54902	-1109.69986	1062.73140	317.79406	-1090.99747	826.29951	314.96876	-1115.29709	835.68321	279.87560	-1071.50841	839.33495	266.50663	-1065.22018	876.35437	745.15816	-1026.57013	890.13847	407.45537	-1029.35341	450.27798	648.79883	-1136.80344	486.17035	694.88571	-1116.77376	486.65920	576.61831	-1013.97263	461.64127	514.91886	-1097.86026	480.62519	418.34141	-1121.60789	478.16082	542.66563	-1099.95110	165.72033	667.37656	-1133.14629	163.65894	601.38397	-1181.07582	153.53524	670.58258	-1067.79327	166.78495	458.70529	-1128.54050	168.59354	422.73678	-1127.77679	172.93695	512.27676 
